<svg width="32" height="32" viewBox="0 0 32 32" fill="none" xmlns="http://www.w3.org/2000/svg">
<path d="M0 16C0 7.16344 7.16344 0 16 0V0C24.8366 0 32 7.16344 32 16V16C32 24.8366 24.8366 32 16 32V32C7.16344 32 0 24.8366 0 16V16Z" fill="#7C5DFA"/>
<path fill-rule="evenodd" clip-rule="evenodd" d="M13.2644 10.3432L16.1555 16.1553L19.0466 10.3432C21.0221 11.3835 22.3691 13.4568 22.3691 15.8446C22.3691 19.2763 19.5872 22.0582 16.1555 22.0582C12.7238 22.0582 9.94189 19.2763 9.94189 15.8446C9.94189 13.4568 11.2888 11.3835 13.2644 10.3432Z" fill="white"/>
</svg>
